<svg xmlns="http://www.w3.org/2000/svg" viewBox="0 0 56 60" role="img" aria-hidden="true">
  <defs>
    <linearGradient id="simaMarkLeaf" x1="0%" y1="0%" x2="100%" y2="100%">
      <stop offset="0%" stop-color="#7abe8f" />
      <stop offset="100%" stop-color="#176b4d" />
    </linearGradient>
  </defs>
  <g transform="translate(4,6) scale(0.088)">
    <path
      fill="url(#simaMarkLeaf)"
      d="M268 118c78 8 142 58 176 130 34 72 28 154-18 218-46 64-124 98-206 92V118h48zm-40 312v-262c-72 18-124 76-136 148-12 72 22 144 82 182 18 11 38 19 54 22v-90z"
    />
    <path
      fill="#c8e8b8"
      fill-opacity="0.92"
      d="M228 158v216c48-18 86-52 108-96 22-44 24-94 8-138-14-40-44-70-80-82l-36 100z"
    />
  </g>
</svg>
